<svg xmlns="http://www.w3.org/2000/svg" xmlns:xlink="http://www.w3.org/1999/xlink" width="135.5" height="42" viewBox="0 0 135.5 42"><defs><clipPath id="a"><rect width="19.829" height="19.829" transform="translate(0 0)" fill="#fff"/></clipPath><clipPath id="c"><rect width="135.5" height="42"/></clipPath></defs><g id="b" clip-path="url(#c)"><path d="M4.932.288A2.019,2.019,0,0,1,3.384-.288a2.224,2.224,0,0,1-.54-1.584V-23.508a2.128,2.128,0,0,1,.576-1.6A2.181,2.181,0,0,1,5-25.668a2.57,2.57,0,0,1,1.422.342,3.038,3.038,0,0,1,.954,1.17L16.272-7.7H15.12l8.892-16.452a3.127,3.127,0,0,1,.936-1.17,2.478,2.478,0,0,1,1.4-.342,2.055,2.055,0,0,1,1.548.558,2.212,2.212,0,0,1,.54,1.6V-1.872a2.272,2.272,0,0,1-.522,1.584,2.008,2.008,0,0,1-1.566.576A2.019,2.019,0,0,1,24.8-.288a2.224,2.224,0,0,1-.54-1.584V-18.54h.792L17.5-4.752a2.931,2.931,0,0,1-.756.9,1.8,1.8,0,0,1-1.08.288,1.887,1.887,0,0,1-1.116-.306,2.642,2.642,0,0,1-.756-.882L6.156-18.576H7.02v16.7A2.272,2.272,0,0,1,6.5-.288,2.008,2.008,0,0,1,4.932.288ZM47.664.36a12.44,12.44,0,0,1-6.426-1.62,11.012,11.012,0,0,1-4.266-4.554,14.859,14.859,0,0,1-1.512-6.894,15.776,15.776,0,0,1,.864-5.382,11.756,11.756,0,0,1,2.466-4.1,10.791,10.791,0,0,1,3.852-2.628,13.182,13.182,0,0,1,5.022-.918,12.524,12.524,0,0,1,6.444,1.6,10.955,10.955,0,0,1,4.248,4.518,14.748,14.748,0,0,1,1.512,6.876A15.931,15.931,0,0,1,59-7.344,11.916,11.916,0,0,1,56.538-3.2,10.684,10.684,0,0,1,52.686-.558,13.182,13.182,0,0,1,47.664.36Zm0-3.96a7.066,7.066,0,0,0,3.978-1.08,6.884,6.884,0,0,0,2.52-3.132,12.35,12.35,0,0,0,.882-4.9,10.374,10.374,0,0,0-1.926-6.7,6.621,6.621,0,0,0-5.454-2.376,7.178,7.178,0,0,0-3.96,1.062,6.742,6.742,0,0,0-2.538,3.1,12.319,12.319,0,0,0-.882,4.914,10.4,10.4,0,0,0,1.944,6.7A6.59,6.59,0,0,0,47.664-3.6ZM68.976.288a2.128,2.128,0,0,1-1.6-.576,2.285,2.285,0,0,1-.558-1.656v-21.42a2.4,2.4,0,0,1,.558-1.71,1.908,1.908,0,0,1,1.458-.594,2.082,2.082,0,0,1,1.242.306,5.847,5.847,0,0,1,.99,1.026L84.852-6.444h-.936V-23.472a2.232,2.232,0,0,1,.558-1.62,2.128,2.128,0,0,1,1.6-.576,2.068,2.068,0,0,1,1.584.576,2.278,2.278,0,0,1,.54,1.62v21.6a2.324,2.324,0,0,1-.5,1.584,1.725,1.725,0,0,1-1.368.576,2.34,2.34,0,0,1-1.314-.324A5.018,5.018,0,0,1,83.952-1.08L70.2-18.972h.9V-1.944a2.332,2.332,0,0,1-.54,1.656A2.068,2.068,0,0,1,68.976.288ZM98.46,0a2.461,2.461,0,0,1-1.818-.63,2.461,2.461,0,0,1-.63-1.818V-22.932a2.461,2.461,0,0,1,.63-1.818,2.461,2.461,0,0,1,1.818-.63h12.852a1.918,1.918,0,0,1,1.386.468,1.763,1.763,0,0,1,.486,1.332,1.875,1.875,0,0,1-.486,1.386,1.875,1.875,0,0,1-1.386.486H100.44v6.984h10.08a1.907,1.907,0,0,1,1.4.468,1.854,1.854,0,0,1,.468,1.368,1.854,1.854,0,0,1-.468,1.368,1.907,1.907,0,0,1-1.4.468H100.44v7.38h10.872A1.918,1.918,0,0,1,112.7-3.2a1.813,1.813,0,0,1,.486,1.368A1.813,1.813,0,0,1,112.7-.468,1.918,1.918,0,0,1,111.312,0Zm29.556.288a2.237,2.237,0,0,1-1.71-.63,2.5,2.5,0,0,1-.594-1.782V-13.068l.972,2.772-8.676-12.2a2.054,2.054,0,0,1-.414-1.386,1.891,1.891,0,0,1,.594-1.26,2.086,2.086,0,0,1,1.512-.522,2.487,2.487,0,0,1,1.314.36,3.972,3.972,0,0,1,1.134,1.116l6.444,9.144h-1.008l6.48-9.144a4.35,4.35,0,0,1,1.116-1.134,2.442,2.442,0,0,1,1.332-.342,2.058,2.058,0,0,1,1.458.486,1.641,1.641,0,0,1,.54,1.206,2.587,2.587,0,0,1-.522,1.512l-8.6,12.168.936-2.772V-2.124Q130.32.288,128.016.288Z" transform="translate(-3 34)" fill="#fff"/><g transform="translate(31.233 7.704)"><path d="M22.929,3.934a13.432,13.432,0,0,0-19,19,13.432,13.432,0,0,0,19-19Z" transform="translate(0 0)" fill="#33cc95"/><g transform="translate(3.518 3.518)" clip-path="url(#a)"><path d="M20.571,8V26.177" transform="translate(-10.657 -7.174)" fill="none" stroke="#fff" stroke-linecap="round" stroke-linejoin="round" stroke-width="2"/><path d="M22.8,12.571h-6.2a2.892,2.892,0,1,0,0,5.784h4.131a2.892,2.892,0,1,1,0,5.784H13.714" transform="translate(-8.757 -8.44)" fill="none" stroke="#fff" stroke-linecap="round" stroke-linejoin="round" stroke-width="2"/></g></g></g></svg>